PathFileType	4	(X/Y/Z)	E:/New_biomech_experiments/MICROGRAVITY MOCAP/Session 2024-06-22/Neeraj_FullAction_pp_22_06_24_t02 (1).trc	
DataRate	CameraRate	NumFrames	NumMarkers	Units	OrigDataRate	OrigDataStartFrame	OrigNumFrames	
120.00	120.00	16	19	m	120.00	1	7579	
Frame#	Time	RSHO			MarkerSet_RBAK			MarkerSet_LBHD			MarkerSet_RUPA			MarkerSet_PRSHO			MarkerSet_RELB			MarkerSet_CLAV			MarkerSet_RFHD			MarkerSet_LFHD			MarkerSet_C7			MarkerSet_RWRB			MarkerSet_RFRM			MarkerSet_RWRA			MarkerSet_MRELB			MarkerSet_DIA			MarkerSet_STRN			MarkerSet_ARSHO			MarkerSet_RBHD			MarkerSet_T10			
		X1	Y1	Z1	X2	Y2	Z2	X3	Y3	Z3	X4	Y4	Z4	X5	Y5	Z5	X6	Y6	Z6	X7	Y7	Z7	X8	Y8	Z8	X9	Y9	Z9	X10	Y10	Z10	X11	Y11	Z11	X12	Y12	Z12	X13	Y13	Z13	X14	Y14	Z14	X15	Y15	Z15	X16	Y16	Z16	X17	Y17	Z17	X18	Y18	Z18	X19	Y19	Z19	

1	0.000	-0.05336	1.57271	0.08732	-0.11312	1.36861	0.00821	-0.04248	1.71753	-0.11799	-0.03754	1.54646	0.26515	-0.11189	1.47856	0.07424	-0.04583	1.54948	0.39872	0.10364	1.49211	-0.06967	0.05807	1.81125	0.02744	0.07178	1.82896	-0.07391	-0.09814	1.52996	-0.07535	-0.07594	1.52105	0.69458	-0.03759	1.55461	0.53723	0.02348	1.51777	0.68490	0.00456	1.44065	0.40898	0.07795	1.17734	0.10874	0.13939	1.32922	-0.05331	0.06022	1.51703	0.08711	-0.06587	1.71510	-0.01523	-0.10977	1.33568	-0.06048 
2	0.008	-0.05334	1.57269	0.08732	-0.11311	1.36861	0.00823	-0.04242	1.71754	-0.11799	-0.03754	1.54647	0.26513	-0.11188	1.47861	0.07426	-0.04581	1.54946	0.39876	0.10365	1.49213	-0.06965	0.05810	1.81125	0.02742	0.07187	1.82895	-0.07391	-0.09810	1.52998	-0.07533	-0.07593	1.52109	0.69460	-0.03760	1.55460	0.53724	0.02349	1.51773	0.68491	0.00448	1.44061	0.40900	0.07790	1.17735	0.10878	0.13937	1.32918	-0.05328	0.06026	1.51701	0.08714	-0.06707	1.71560	-0.01468	-0.10978	1.33572	-0.06049 
3	0.017	-0.05329	1.57268	0.08737	-0.11320	1.36865	0.00819	-0.04239	1.71757	-0.11799	-0.03747	1.54651	0.26516	-0.11185	1.47861	0.07430	-0.04566	1.54955	0.39883	0.10372	1.49211	-0.06962	0.05814	1.81125	0.02743	0.07196	1.82897	-0.07386	-0.09806	1.53002	-0.07533	-0.07591	1.52109	0.69465	-0.03742	1.55426	0.53711	0.02351	1.51768	0.68495	0.00446	1.44058	0.40902	0.07793	1.17735	0.10882	0.13936	1.32918	-0.05323	0.06027	1.51700	0.08714	-0.06706	1.71559	-0.01472	-0.10979	1.33576	-0.06051 
4	0.025	-0.05328	1.57271	0.08737	-0.11319	1.36869	0.00818	-0.04233	1.71756	-0.11799	-0.03745	1.54650	0.26520	-0.11181	1.47862	0.07430	-0.04576	1.54950	0.39881	0.10375	1.49213	-0.06960	0.05821	1.81126	0.02748	0.07199	1.82896	-0.07385	-0.09802	1.53005	-0.07531	-0.07591	1.52113	0.69467	-0.03737	1.55395	0.53692	0.02353	1.51765	0.68498	0.00439	1.44058	0.40905	0.07781	1.17734	0.10886	0.13935	1.32917	-0.05320	0.06030	1.51699	0.08718	-0.06572	1.71510	-0.01518	-0.10980	1.33580	-0.06053 
5	0.033	-0.05323	1.57271	0.08741	-0.11424	1.36913	0.00790	-0.04230	1.71754	-0.11797	-0.03746	1.54649	0.26520	-0.11179	1.47865	0.07433	-0.04558	1.54956	0.39886	0.10377	1.49213	-0.06959	0.05823	1.81127	0.02751	0.07209	1.82897	-0.07379	-0.09801	1.53008	-0.07532	-0.07588	1.52118	0.69471	-0.03749	1.55460	0.53733	0.02356	1.51767	0.68501	0.00441	1.44056	0.40908	0.07785	1.17734	0.10886	0.13936	1.32917	-0.05316	0.06033	1.51701	0.08723	-0.06692	1.71562	-0.01466	-0.10978	1.33581	-0.06053 
6	0.042	-0.05320	1.57274	0.08745	-0.11324	1.36877	0.00818	-0.04222	1.71755	-0.11792	-0.03742	1.54651	0.26524	-0.11179	1.47870	0.07435	-0.04583	1.55016	0.39975	0.10382	1.49211	-0.06954	0.05831	1.81126	0.02754	0.07213	1.82899	-0.07375	-0.09798	1.53012	-0.07531	-0.07585	1.52120	0.69476	-0.03747	1.55461	0.53732	0.02357	1.51766	0.68504	0.00438	1.44057	0.40909	0.07781	1.17736	0.10890	0.13932	1.32890	-0.05330	0.06034	1.51699	0.08723	-0.06569	1.71513	-0.01518	-0.10973	1.33580	-0.06051 
7	0.050	-0.05318	1.57275	0.08747	-0.11424	1.36919	0.00791	-0.04218	1.71759	-0.11790	-0.03718	1.54578	0.26520	-0.11178	1.47874	0.07439	-0.04564	1.54950	0.39887	0.10383	1.49215	-0.06952	0.05847	1.81137	0.02770	0.07217	1.82898	-0.07373	-0.09795	1.53013	-0.07530	-0.07584	1.52122	0.69476	-0.03743	1.55464	0.53737	0.02360	1.51768	0.68505	0.00441	1.44054	0.40910	0.07780	1.17739	0.10892	0.13937	1.32917	-0.05312	0.06038	1.51701	0.08727	-0.06562	1.71512	-0.01516	-0.10972	1.33586	-0.06050 
8	0.058	-0.05314	1.57276	0.08750	-0.11323	1.36883	0.00820	-0.04211	1.71759	-0.11785	-0.03737	1.54652	0.26528	-0.11178	1.47875	0.07441	-0.04566	1.54953	0.39890	0.10387	1.49214	-0.06950	0.05850	1.81135	0.02774	0.07227	1.82899	-0.07367	-0.09791	1.53015	-0.07528	-0.07579	1.52126	0.69478	-0.03739	1.55464	0.53737	0.02362	1.51771	0.68506	0.00438	1.44057	0.40915	0.07773	1.17735	0.10892	0.13937	1.32919	-0.05309	0.06041	1.51702	0.08729	-0.06559	1.71514	-0.01511	-0.10981	1.33603	-0.06054 
9	0.067	-0.05308	1.57279	0.08754	-0.11427	1.36922	0.00795	-0.04209	1.71760	-0.11782	-0.03739	1.54651	0.26527	-0.11175	1.47877	0.07442	-0.04587	1.55020	0.39981	0.10390	1.49214	-0.06947	0.05858	1.81137	0.02779	0.07248	1.82902	-0.07346	-0.09789	1.53017	-0.07527	-0.07575	1.52129	0.69479	-0.03737	1.55468	0.53740	0.02366	1.51775	0.68506	0.00438	1.44059	0.40916	0.07774	1.17737	0.10894	0.13939	1.32920	-0.05307	0.06045	1.51703	0.08729	-0.06528	1.71565	-0.01480	-0.10993	1.33620	-0.06060 
10	0.075	-0.05305	1.57281	0.08753	-0.11424	1.36925	0.00796	-0.04206	1.71763	-0.11779	-0.03733	1.54656	0.26531	-0.11174	1.47881	0.07444	-0.04583	1.55024	0.39984	0.10393	1.49217	-0.06945	0.05864	1.81139	0.02781	0.07236	1.82901	-0.07360	-0.09784	1.53019	-0.07526	-0.07570	1.52133	0.69481	-0.03734	1.55472	0.53744	0.02369	1.51778	0.68506	0.00445	1.44063	0.40919	0.07768	1.17734	0.10896	0.13942	1.32921	-0.05303	0.06046	1.51703	0.08733	-0.06655	1.71605	-0.01440	-0.10978	1.33595	-0.06052 
11	0.083	-0.05301	1.57279	0.08758	-0.11422	1.36927	0.00795	-0.04201	1.71764	-0.11776	-0.03740	1.54655	0.26532	-0.11169	1.47883	0.07447	-0.04576	1.55026	0.39988	0.10397	1.49216	-0.06944	0.05870	1.81139	0.02786	0.07238	1.82899	-0.07359	-0.09780	1.53021	-0.07524	-0.07565	1.52139	0.69484	-0.03725	1.55475	0.53745	0.02374	1.51782	0.68508	0.00446	1.44067	0.40921	0.07764	1.17736	0.10896	0.13944	1.32920	-0.05303	0.06048	1.51704	0.08735	-0.06524	1.71572	-0.01478	-0.10939	1.33535	-0.06033 
12	0.092	-0.05300	1.57282	0.08757	-0.11421	1.36929	0.00800	-0.04198	1.71765	-0.11774	-0.03733	1.54660	0.26534	-0.11166	1.47884	0.07449	-0.04555	1.54963	0.39899	0.10402	1.49215	-0.06939	0.05873	1.81139	0.02785	0.07242	1.82899	-0.07355	-0.09775	1.53024	-0.07520	-0.07558	1.52146	0.69486	-0.03724	1.55478	0.53746	0.02378	1.51788	0.68510	0.00445	1.44067	0.40923	0.07766	1.17737	0.10897	0.13947	1.32919	-0.05297	0.06054	1.51707	0.08737	-0.06646	1.71607	-0.01432	-0.10975	1.33600	-0.06049 
13	0.100	-0.05293	1.57284	0.08759	-0.11420	1.36928	0.00801	-0.04194	1.71764	-0.11772	-0.03732	1.54661	0.26536	-0.11159	1.47884	0.07452	-0.04562	1.55056	0.40012	0.10409	1.49215	-0.06937	0.05877	1.81139	0.02789	0.07268	1.82902	-0.07335	-0.09772	1.53026	-0.07520	-0.07557	1.52156	0.69492	-0.03707	1.55415	0.53707	0.02384	1.51790	0.68512	0.00448	1.44070	0.40926	0.07765	1.17737	0.10903	0.13949	1.32919	-0.05296	0.06061	1.51708	0.08741	-0.06639	1.71607	-0.01427	-0.11127	1.33853	-0.06120 
14	0.108	-0.05284	1.57284	0.08765	-0.11419	1.36930	0.00805	-0.04189	1.71764	-0.11769	-0.03724	1.54661	0.26540	-0.11154	1.47888	0.07457	-0.04576	1.55043	0.40013	0.10413	1.49214	-0.06934	0.05880	1.81139	0.02791	0.07254	1.82901	-0.07352	-0.09766	1.53026	-0.07517	-0.07553	1.52163	0.69494	-0.03714	1.55488	0.53749	0.02384	1.51794	0.68514	0.00449	1.44070	0.40932	0.07761	1.17736	0.10904	0.13952	1.32919	-0.05292	0.06060	1.51704	0.08739	-0.06526	1.71519	-0.01458	-0.11329	1.34187	-0.06214 
15	0.117	-0.05281	1.57285	0.08768	-0.11419	1.36933	0.00806	-0.04184	1.71763	-0.11767	-0.03685	1.54590	0.26505	-0.11152	1.47889	0.07458	-0.04569	1.55045	0.40013	0.10418	1.49215	-0.06933	0.05886	1.81138	0.02792	0.07256	1.82901	-0.07354	-0.09761	1.53027	-0.07513	-0.07552	1.52169	0.69494	-0.03708	1.55490	0.53752	0.02390	1.51798	0.68516	0.00448	1.44072	0.40936	0.07760	1.17732	0.10903	0.13956	1.32917	-0.05291	0.06069	1.51704	0.08744	-0.06631	1.71608	-0.01425	-0.11428	1.34351	-0.06259 
16	0.125	-0.05275	1.57286	0.08770	-0.11420	1.36937	0.00807	-0.04182	1.71764	-0.11768	-0.03714	1.54667	0.26543	-0.11149	1.47891	0.07465	-0.04549	1.55060	0.40016	0.10421	1.49213	-0.06934	0.05890	1.81140	0.02791	0.07259	1.82901	-0.07354	-0.09756	1.53031	-0.07514	-0.07544	1.52177	0.69500	-0.03690	1.55425	0.53712	0.02394	1.51801	0.68519	0.00448	1.44070	0.40939	0.07760	1.17730	0.10904	0.13954	1.32913	-0.05289	0.06074	1.51703	0.08750	-0.06626	1.71604	-0.01424	-0.11400	1.34309	-0.06245 
